<?xml version="1.0" encoding="UTF-8"?>
<svg id="Camada_2" data-name="Camada 2" xmlns="http://www.w3.org/2000/svg" viewBox="0 0 154.73 159.67">
  <defs>
    <style>
      .cls-1 {
        fill: #0b0c0d;
      }

      .cls-2 {
        fill: #f1860b;
      }

      .cls-3 {
        fill: #d85314;
      }

      .cls-4 {
        fill: #f39f06;
      }

      .cls-5 {
        fill: #ee7511;
      }

      .cls-6 {
        fill: #f1860d;
      }

      .cls-7 {
        fill: #f49f09;
      }
    </style>
  </defs>
  <g id="Proporção_Áurea" data-name="Proporção Áurea">
    <g>
      <circle class="cls-3" cx="79.87" cy="79.84" r="29.94"/>
      <circle class="cls-1" cx="79.87" cy="79.84" r="6.17"/>
    </g>
    <g>
      <circle class="cls-5" cx="144.75" cy="79.84" r="9.98"/>
      <g>
        <circle class="cls-2" cx="144.75" cy="79.84" r="5.67"/>
        <path class="cls-6" d="M144.75,74.67c2.85,0,5.17,2.32,5.17,5.17s-2.32,5.17-5.17,5.17-5.17-2.32-5.17-5.17,2.32-5.17,5.17-5.17m0-1c-3.41,0-6.17,2.76-6.17,6.17s2.76,6.17,6.17,6.17,6.17-2.76,6.17-6.17-2.76-6.17-6.17-6.17h0Z"/>
      </g>
      <g>
        <circle class="cls-4" cx="144.75" cy="79.84" r="3.31"/>
        <path class="cls-7" d="M144.75,77.02c1.55,0,2.81,1.26,2.81,2.81s-1.26,2.81-2.81,2.81-2.81-1.26-2.81-2.81,1.26-2.81,2.81-2.81m0-1c-2.11,0-3.81,1.71-3.81,3.81s1.71,3.81,3.81,3.81,3.81-1.71,3.81-3.81-1.71-3.81-3.81-3.81h0Z"/>
      </g>
    </g>
    <path class="cls-4" d="M152.35,46.36c.17,.44,.29,.93,.29,1.45,0,.62-.16,1.22-.42,1.74-.01,0-.01,.01-.01,.01-.04,.1-.1,.17-.14,.26-.03,.04-.06,.1-.1,.14-3.44,5.92-9.87,9.92-17.24,9.92-.29,0-.57-.01-.86-.03h-.19c-.27-.01-.54-.04-.82-.07-.09,0-.17,0-.27-.01t-.03-.01c-.11-.01-.24-.03-.37-.04-.19-.01-.36-.04-.54-.07-.2-.03-.4-.07-.6-.1s-.4-.07-.6-.13c-.03,0-.06-.01-.1-.01-.24-.06-.49-.13-.73-.19-.04,0-.07-.01-.11-.03-.03,0-.06-.01-.09-.03-.23-.06-.47-.13-.7-.2-.19-.06-.37-.11-.56-.19s-.37-.14-.56-.2c-.19-.09-.37-.16-.56-.23-.17-.07-.36-.16-.54-.24-.34-.16-.69-.33-1.03-.5t-.03-.01c-.06-.03-.13-.07-.2-.1-.01-.01-.03-.01-.03-.03-.07-.04-.16-.07-.22-.13-.03,0-.04-.01-.06-.03-.47-.3-.87-.72-1.18-1.22l-.13-.22c-2.22-4.06-5-7.79-8.25-11.06-9.05-9.18-21.61-14.86-35.52-14.86-27.56,0-49.9,22.34-49.9,49.9s22.34,49.89,49.9,49.89c13.91,0,26.47-5.68,35.52-14.86,3.26-3.28,6.05-7.04,8.29-11.13,.29-.53,.72-1,1.22-1.33l.13-.09,.22-.13c.1-.06,.2-.1,.3-.14,2.75-1.45,5.88-2.27,9.21-2.27,7.4,0,13.84,4.03,17.28,9.99,.06,.07,.09,.14,.13,.22,.01,.01,.03,.03,.03,.06,.3,.53,.47,1.15,.47,1.81,0,.53-.11,1.02-.3,1.48h0c-.06,.11-.1,.22-.14,.32-4.66,9.94-11.31,18.79-19.43,25.97-14.1,12.48-32.61,20.05-52.91,20.05C35.75,159.67,0,123.94,0,79.84S35.75,0,79.84,0c20.31,0,38.82,7.59,52.91,20.06,8.12,7.18,14.76,15.99,19.4,25.93,.07,.11,.13,.24,.19,.37Z"/>
  </g>
</svg>